# AST/ASF file generated using VICON BodyLanguage
# -----------------------------------------------
:version 1.10
:name VICON
:units
  mass 1.0
  length 0.45
  angle deg
:documentation
   .ast/.asf automatically generated from VICON data using
   VICON BodyBuilder and BodyLanguage model FoxedUp or BRILLIANT.MOD
:root
   order TX TY TZ RX RY RZ
   axis XYZ
   position 0 0 0  
   orientation 0 0 0 
:bonedata
  begin
     id 1 
     name lhipjoint
     direction 0.645422 -0.672597 0.361999 
     length 2.39934 
     axis 0 0 0  XYZ
  end
  begin
     id 2 
     name lfemur
     direction 0.34202 -0.939693 0  
     length 6.58112  
     axis 0 0 20  XYZ
    dof rx ry rz
    limits (-160.0 20.0)
           (-70.0 70.0)
           (-60.0 70.0)
  end
  begin
     id 3 
     name ltibia
     direction 0.34202 -0.939693 0   
     length 7.02673   
     axis 0 0 20   XYZ
    dof rx
    limits (-10.0 170.0)
  end
  begin
     id 4 
     name lfoot
     direction 0.0835106 -0.229444 0.969733   
     length 2.08772   
     axis -90 7.62852e-016 20   XYZ
    dof rx rz
    limits (-45.0 90.0)
           (-70.0 20.0)
  end
  begin
     id 5 
     name ltoes
     direction 1.5358e-011 -4.21925e-011 1   
     length 1.04844   
     axis -90 7.62852e-016 20   XYZ
    dof rx
    limits (-90.0 20.0)
  end
  begin
     id 6 
     name rhipjoint
     direction -0.644959 -0.672941 0.362185   
     length 2.39812  
     axis 0 0 0  XYZ 
  end
  begin
     id 7 
     name rfemur
     direction -0.34202 -0.939693 0   
     length 6.67015   
     axis 0 0 -20   XYZ
    dof rx ry rz
    limits (-160.0 20.0)
           (-70.0 70.0)
           (-70.0 60.0)
  end
  begin
     id 8 
     name rtibia
     direction -0.34202 -0.939693 0   
     length 7.35735   
     axis 0 0 -20   XYZ
    dof rx
    limits (-10.0 170.0)
 end
 begin
     id 9 
     name rfoot
     direction -0.0670769 -0.184292 0.98058   
     length 2.25469  
     axis -90 -7.62852e-016 -20   XYZ
    dof rx rz
    limits (-45.0 90.0)
           (-20.0 70.0)
  end
  begin
     id 10 
     name rtoes
     direction -1.53575e-011 -4.21908e-011 1   
     length 1.13399   
     axis -90 -7.62852e-016 -20   XYZ
    dof rx
    limits (-90.0 20.0)
  end
  begin
     id 11 
     name lowerback
     direction -0.0188328 0.993434 -0.112847   
     length 2.27656   
     axis 0 0 0   XYZ
    dof rx ry rz
    limits (-20.0 45.0)
           (-30.0 30.0)
           (-30.0 30.0)
  end
  begin
     id 12 
     name upperback
     direction 0.00983139 0.998968 -0.04435   
     length 2.28631   
     axis 0 0 0   XYZ
    dof rx ry rz
    limits (-20.0 45.0)
           (-30.0 30.0)
           (-30.0 30.0)
  end
  begin
     id 13 
     name thorax
     direction 0.0177718 0.999807 0.00833073   
     length 2.30999   
     axis 0 0 0   XYZ
    dof rx ry rz
    limits (-20.0 45.0)
           (-30.0 30.0)
           (-30.0 30.0)
  end
  begin
     id 14 
     name lowerneck
     direction -0.0835025 0.993181 0.0813558   
     length 1.39447   
     axis 0 0 0   XYZ
    dof rx ry rz
    limits (-20.0 45.0)
           (-30.0 30.0)
           (-30.0 30.0)
  end
  begin
     id 15 
     name upperneck
     direction 0.210059 0.976535 0.0474817   
     length 1.39882   
     axis 0 0 0   XYZ
    dof rx ry rz
    limits (-20.0 45.0)
           (-30.0 30.0)
           (-30.0 30.0)
  end
  begin
     id 16
     name head
     direction 0.0780891 0.996944 -0.00207154  
     length 1.41828  
     axis 0 0 0   XYZ
    dof rx ry rz
    limits (-20.0 45.0)
           (-30.0 30.0)
           (-30.0 30.0)
  end
  begin
     id 17 
     name lclavicle
     direction 0.982414 0.166355 -0.0847829  
     length 3.57922  
     axis 0 0 0   XYZ
    dof ry rz
    limits (-20.0 10.0)
           (0.0 20.0)
  end
  begin
     id 18 
     name lhumerus
     direction 1 -4.48975e-011 5.47647e-028   
     length 4.76405   
     axis -180 -30 -90   XYZ
    dof rx ry rz
    limits (-60.0 90.0)
           (-90.0 90.0)
           (-90.0 90.0)
  end
  begin
     id 19
     name lradius
     direction 1 -4.48949e-011 -8.32142e-027   
     length 3.13759   
     axis -180 -30 -90   XYZ
    dof rx
    limits (-10.0 170.0)
  end
  begin
     id 20
     name lwrist
     direction 1 -4.48978e-011 -1.32705e-026   
     length 1.56879   
     axis 9.60836e-015 90 90   XYZ
    dof ry
    limits (-180.0 0.0)
 end
  begin
     id 21 
     name lhand
     direction 1 -4.48975e-011 -2.65409e-026   
     length 0.732262   
     axis 1.69354e-014 90 90   XYZ
    dof rx rz
    limits (-90.0 90.0)
           (-45.0 45.0)
  end
  begin
     id 22 
     name lfingers
     direction 1 -4.48923e-011 -5.30819e-026   
     length 0.590368   
     axis 3.38708e-014 90 90   XYZ
    dof rx
    limits (0.0 90.0)
  end
  begin
     id 23
     name lthumb
     direction 0.707107 -6.34914e-011 0.707107   
     length 0.847654   
     axis -90 45 2.85299e-015   XYZ
    dof rx rz
    limits (-45.0 45.0)
           (-45.0 45.0)
  end
  begin
     id 24 
     name rclavicle
     direction -0.963658 0.245183 -0.106063   
     length 3.43472  
     axis 0 0 0   XYZ 
    dof ry rz
    limits (-10.0 20.0)
           (-20.0 0.0)
  end
  begin
     id 25 
     name rhumerus
     direction -1 -4.48963e-011 -1.64784e-027  
     length 5.10161   
     axis -180 30 90   XYZ
    dof rx ry rz
    limits (-90.0 60.0)
           (-90.0 90.0)
           (-90.0 90.0)
  end
  begin
     id 26 
     name rradius
     direction -1 -4.48969e-011 -2.87943e-027   
     length 3.23267   
     axis -180 30 90   XYZ
    dof rx
    limits (-10.0 170.0)
  end
  begin
     id 27 
     name rwrist
     direction -1 -4.48982e-011 -1.32705e-026   
     length 1.61633   
     axis 9.60836e-015 -90 -90   XYZ
    dof ry
    limits (-180.0 0.0)
  end
  begin
     id 28
     name rhand
     direction -1 -4.48963e-011 -2.65409e-026   
     length 0.702   
     axis 1.69354e-014 -90 -90   XYZ
    dof rx rz
    limits (-90.0 90.0)
           (-45.0 45.0)
  end
  begin
     id 29
     name rfingers
     direction -1 -4.48934e-011 -5.30819e-026   
     length 0.565971   
     axis 3.38708e-014 -90 -90   XYZ
    dof rx
    limits (0.0 90.0)
  end
  begin
     id 30
     name rthumb
     direction -0.707107 -6.34908e-011 0.707107   
     length 0.812624   
     axis -90 -45 -2.85299e-015   XYZ
    dof rx rz
    limits (-45.0 45.0)
           (-45.0 45.0)
  end
:hierarchy
  begin
    root lhipjoint rhipjoint lowerback
    lhipjoint lfemur
    lfemur ltibia
    ltibia lfoot
    lfoot ltoes
    rhipjoint rfemur
    rfemur rtibia
    rtibia rfoot
    rfoot rtoes
    lowerback upperback
    upperback thorax
    thorax lowerneck lclavicle rclavicle
    lowerneck upperneck
    upperneck head
    lclavicle lhumerus
    lhumerus lradius
    lradius lwrist
    lwrist lhand lthumb
    lhand lfingers
    rclavicle rhumerus
    rhumerus rradius
    rradius rwrist
    rwrist rhand rthumb
    rhand rfingers
  end

#!OML:ASF \\sashay\E\basketball\basketball\Project 1\Capture day 1\Session 1\Subject.ASF
:FULLY-SPECIFIED
:DEGREES
146
root -3.85083 14.3808 -7.70253 -175.539 65.764 -199.286
lowerback 17.566 10.1282 -2.78299
upperback 7.09352 13.2342 -3.20584
thorax -1.80694 6.7956 -4.31228
lowerneck 11.9295 -20.4573 -20.2878
upperneck -28.4011 -26.1257 33.2831
head -2.35086 -14.3742 13.7879
rclavicle 1.1609e-013 -1.38354e-013
rhumerus -33.2203 -11.7767 -77.887
rradius 52.0268
rwrist -26.2941
rhand -31.1202 36.5657
rfingers 7.12502
rthumb -4.39922 6.63144
lclavicle 1.1609e-013 -1.38354e-013
lhumerus -26.4123 -12.5491 101.862
lradius 120.253
lwrist 46.2464
lhand -19.895 39.0028
lfingers 7.12502
lthumb 6.44118 68.8849
rfemur 4.02812 -16.7356 30.194
rtibia 26.0159
rfoot -3.09689 8.35563
rtoes -12.0905
lfemur -65.2093 -5.83002 -12.5311
ltibia 90.5369
lfoot -9.53844 3.21198
ltoes -24.7234
147
root -3.30567 14.4116 -7.86875 -175.361 65.2054 -198.844
lowerback 17.3142 10.1713 -1.87529
upperback 7.0079 13.4536 -3.56962
thorax -1.46874 6.94292 -5.13135
lowerneck 11.9277 -21.0104 -19.7242
upperneck -27.8017 -26.8699 33.388
head -2.06435 -14.8226 13.5176
rclavicle -1.59028e-014 -2.38542e-014
rhumerus -33.8594 -12.5397 -79.0527
rradius 51.2817
rwrist -25.6537
rhand -30.8739 36.0993
rfingers 7.12502
rthumb -4.16139 6.16021
lclavicle -1.59028e-014 -2.38542e-014
lhumerus -26.927 -12.7084 102.413
lradius 120.661
lwrist 47.2533
lhand -20.0967 39.5718
lfingers 7.12502
lthumb 6.24643 69.4597
rfemur 8.23419 -15.0451 30.1472
rtibia 21.6579
rfoot 0.0547642 7.23742
rtoes -11.3035
lfemur -66.1898 -6.43154 -12.569
ltibia 86.2286
lfoot -9.15456 1.13688
ltoes -24.7261
148
root -2.75119 14.4425 -8.02221 -175.61 64.5748 -198.365
lowerback 17.3529 10.0098 -1.48756
upperback 7.14076 13.3286 -3.36165
thorax -1.32387 6.89409 -5.08282
lowerneck 12.0115 -21.0939 -20.1714
upperneck -27.3272 -27.1858 33.3741
head -1.80251 -14.9572 13.4384
rclavicle 3.18055e-014 1.90833e-014
rhumerus -34.1711 -11.9589 -79.7127
rradius 50.4598
rwrist -25.2699
rhand -30.3751 36.688
rfingers 7.12502
rthumb -3.67969 6.74003
lclavicle 3.18055e-014 1.90833e-014
lhumerus -26.9381 -11.7356 103.066
lradius 120.879
lwrist 47.8456
lhand -20.0294 40.314
lfingers 7.12502
lthumb 6.31146 70.2
rfemur 12.6788 -12.4858 30.6287
rtibia 17.5287
rfoot 1.98569 4.944
rtoes -20.0154
lfemur -66.1896 -6.80359 -12.826
ltibia 81.7552
lfoot -9.40979 -1.34396
ltoes -25.075
149
root -2.21639 14.4654 -8.17086 -174.938 64.3911 -197.64
lowerback 16.964 10.0099 -0.930949
upperback 6.89193 13.3992 -3.43107
thorax -1.24879 6.93187 -5.39675
lowerneck 12.2113 -21.1512 -20.2413
upperneck -26.6648 -27.4285 33.2882
head -1.59671 -15.0934 13.3265
rclavicle -3.97569e-014 -9.54166e-015
rhumerus -34.6951 -11.6901 -80.5004
rradius 49.7371
rwrist -24.742
rhand -29.5884 37.377
rfingers 7.12502
rthumb -2.91999 7.41725
lclavicle -3.97569e-014 -9.54166e-015
lhumerus -26.6979 -11.0541 103.149
lradius 120.904
lwrist 48.4033
lhand -20.157 40.9245
lfingers 7.12502
lthumb 6.18828 70.8141
rfemur 15.7381 -8.87648 31.8714
rtibia 14.4645
rfoot 4.0091 1.96362
rtoes -29.0791
lfemur -66.752 -6.47221 -13.1407
ltibia 77.363
lfoot -9.42511 -3.99914
ltoes -23.3153
150
root -1.67644 14.4659 -8.30539 -174.676 63.8376 -196.623
lowerback 17.1459 9.82392 -0.400804
upperback 6.87111 13.2388 -3.2533
thorax -1.30758 6.85833 -5.49574
lowerneck 12.5935 -20.9376 -20.4513
upperneck -26.309 -27.2535 33.51
head -1.51928 -15.054 13.4761
rclavicle 0 -3.49861e-014
rhumerus -35.1553 -11.2704 -81.256
rradius 49.2654
rwrist -23.5804
rhand -29.0199 37.096
rfingers 7.12502
rthumb -2.37089 7.12942
lclavicle 0 -3.49861e-014
lhumerus -26.0328 -10.2119 102.938
lradius 120.898
lwrist 49.0643
lhand -20.1504 41.3851
lfingers 7.12502
lthumb 6.19457 71.2745
rfemur 18.6832 -5.55092 33.7431
rtibia 13.3061
rfoot 6.00437 -2.09507
rtoes -32.224
lfemur -66.4223 -6.11437 -13.6985
ltibia 73.3044
lfoot -9.19792 -6.55705
ltoes -24.2368
151
root -1.14685 14.4584 -8.43904 -173.729 63.4869 -195.184
lowerback 17.0427 9.62367 0.287936
upperback 6.77799 13.0793 -3.05986
thorax -1.26898 6.78277 -5.61245
lowerneck 12.8559 -20.7784 -20.6526
upperneck -25.9054 -27.1299 33.8297
head -1.37823 -15.0445 13.6166
rclavicle -3.81667e-014 6.36111e-015
rhumerus -35.5431 -10.8532 -81.8744
rradius 48.9119
rwrist -22.2312
rhand -28.3311 36.5329
rfingers 7.12502
rthumb -1.70569 6.56001
lclavicle -3.81667e-014 6.36111e-015
lhumerus -25.0081 -9.28401 102.439
lradius 120.868
lwrist 49.9063
lhand -19.728 41.8949
lfingers 7.12502
lthumb 6.60243 71.7719
rfemur 19.8423 -3.25228 35.6175
rtibia 15.022
rfoot 6.50469 -5.58623
rtoes -32.3884
lfemur -66.2693 -5.39858 -14.2511
ltibia 69.6796
lfoot -9.06111 -8.78334
ltoes -28.5104
152
root -0.620495 14.4293 -8.56858 -173.128 62.8916 -193.872
lowerback 17.1497 9.3097 1.04923
upperback 6.77822 12.7971 -2.90923
thorax -1.22542 6.65804 -5.82323
lowerneck 12.8219 -20.9124 -20.5437
upperneck -25.3939 -27.3196 34.1639
head -1.12724 -15.1934 13.5955
rclavicle -8.42847e-014 1.43125e-014
rhumerus -35.8944 -10.7294 -82.5108
rradius 48.5927
rwrist -21.2297
rhand -27.1732 36.2945
rfingers 7.12502
rthumb -0.587397 6.31557
lclavicle -8.42847e-014 1.43125e-014
lhumerus -23.5711 -8.41755 101.616
lradius 120.746
lwrist 50.7524
lhand -19.1887 42.8096
lfingers 7.12502
lthumb 7.12296 72.6697
rfemur 20.1758 -2.43539 37.1818
rtibia 18.6905
rfoot 6.29054 -7.87234
rtoes -30.8936
lfemur -65.732 -4.76683 -15.0044
ltibia 66.6619
lfoot -8.78322 -11.0461
ltoes -28.9826
153
root -0.102624 14.3952 -8.6981 -172.35 62.3935 -192.639
lowerback 17.0224 8.99635 1.85824
upperback 6.75018 12.5211 -2.91797
thorax -1.04674 6.54477 -6.18454
lowerneck 12.8254 -20.9112 -20.2563
upperneck -25.159 -27.1961 34.7562
head -1.00907 -15.2233 13.7452
rclavicle -8.5875e-014 1.27222e-014
rhumerus -36.2445 -10.7519 -83.2648
rradius 48.4477
rwrist -20.5028
rhand -26.5022 36.2788
rfingers 7.12502
rthumb 0.0606934 6.29904
lclavicle -8.5875e-014 1.27222e-014
lhumerus -21.7623 -7.73211 100.522
lradius 120.642
lwrist 51.5479
lhand -18.7558 43.7918
lfingers 7.12502
lthumb 7.54083 73.6374
rfemur 19.461 -2.59819 38.2465
rtibia 23.5081
rfoot 5.96672 -8.79869
rtoes -29.216
lfemur -65.3574 -3.97335 -15.8875
ltibia 64.23
lfoot -8.16583 -13.4418
ltoes -26.7396
154
root 0.402819 14.3712 -8.82911 -171.854 62.0248 -191.877
lowerback 16.9508 8.68144 2.56409
upperback 6.66822 12.2183 -3.06562
thorax -0.95194 6.41581 -6.65511
lowerneck 12.6392 -21.1 -19.6774
upperneck -25.3888 -27.123 35.6291
head -0.962663 -15.3069 13.9474
rclavicle -2.21049e-013 5.88403e-014
rhumerus -36.7108 -10.7344 -84.0041
rradius 48.5509
rwrist -20.0159
rhand -26.7841 36.3884
rfingers 7.12502
rthumb -0.211561 6.40875
lclavicle -2.21049e-013 5.88403e-014
lhumerus -19.8527 -7.16981 99.2967
lradius 120.69
lwrist 51.9239
lhand -18.0558 44.6652
lfingers 7.12502
lthumb 8.21649 74.4854
rfemur 17.9427 -3.35104 38.7387
rtibia 29.268
rfoot 4.41209 -7.92279
rtoes -29.6638
lfemur -64.8461 -3.24087 -16.9377
ltibia 62.4876
lfoot -7.19447 -14.8935
ltoes -24.358
155
root 0.918483 14.3547 -8.95301 -172.923 61.4425 -192.008
lowerback 17.63 8.16402 2.73048
upperback 6.88359 11.6148 -3.04506
thorax -1.12108 6.13542 -6.73873
lowerneck 12.4066 -21.1212 -19.5551
upperneck -25.7432 -26.9033 36.4218
head -0.92476 -15.2673 14.2151
rclavicle 7.31528e-014 -1.90833e-014
rhumerus -37.1759 -10.4922 -84.5056
rradius 48.8483
rwrist -19.7983
rhand -26.8186 36.5946
rfingers 7.12502
rthumb -0.244853 6.61505
lclavicle 7.31528e-014 -1.90833e-014
lhumerus -17.6595 -6.16875 98.3375
lradius 120.813
lwrist 51.3652
lhand -17.1654 46.1199
lfingers 7.12502
lthumb 9.07576 75.9046
rfemur 16.8764 -4.77912 38.7644
rtibia 35.5612
rfoot 2.92523 -7.25953
rtoes -31.0177
lfemur -63.2154 -2.79512 -18.3049
ltibia 61.5053
lfoot -6.5951 -15.959
ltoes -17.3072
156
root 1.42306 14.3332 -9.07936 -174.049 61.2006 -192.645
lowerback 17.8749 7.68017 2.46119
upperback 7.09324 10.9735 -3.08182
thorax -1.15024 5.8291 -6.56381
lowerneck 12.3165 -20.5718 -19.9688
upperneck -25.8047 -26.1061 36.8628
head -0.970323 -14.8718 14.5979
rclavicle 1.54257e-013 1.145e-013
rhumerus -37.5395 -9.88996 -84.8825
rradius 49.1639
rwrist -19.933
rhand -26.2766 34.2791
rfingers 7.12502
rthumb 0.27856 4.29952
lclavicle 1.54257e-013 1.145e-013
lhumerus -15.231 -5.08538 97.5776
lradius 121.126
lwrist 50.0572
lhand -16.66 47.6496
lfingers 7.12502
lthumb 9.56339 77.4126
rfemur 15.0752 -6.16875 38.1905
rtibia 42.3006
rfoot 1.47253 -6.78224
rtoes -30.6581
lfemur -61.6997 -2.16026 -19.8409
ltibia 61.1683
lfoot -6.89944 -15.0256
ltoes -9.54066
157
root 1.93301 14.3127 -9.20504 -176.231 61.0429 -194.272
lowerback 18.3169 7.26842 1.75598
upperback 7.33119 10.365 -3.36694
thorax -1.26627 5.54195 -6.44391
lowerneck 12.1832 -20.1077 -19.8294
upperneck -25.8219 -25.2886 37.248
head -1.10702 -14.496 14.9117
rclavicle -6.20208e-014 3.97569e-014
rhumerus -38.027 -9.48916 -85.3234
rradius 49.4827
rwrist -20.2318
rhand -26.9915 35.6374
rfingers 7.12502
rthumb -0.411853 5.65804
lclavicle -6.20208e-014 3.97569e-014
lhumerus -13.0153 -4.7425 96.5689
lradius 121.698
lwrist 48.208
lhand -16.6608 48.2075
lfingers 7.12502
lthumb 9.56259 77.9705
rfemur 13.1971 -7.93572 36.7322
rtibia 49.433
rfoot 0.400815 -6.74687
rtoes -30.5345
lfemur -59.6093 -1.65179 -21.5406
ltibia 61.5785
lfoot -9.12065 -12.3678
ltoes -9.79993
158
root 2.43749 14.2796 -9.32713 -179.19 60.9179 -196.378
lowerback 19.2116 6.90588 0.724824
upperback 7.644 9.77559 -3.65899
thorax -1.57063 5.26307 -6.21101
lowerneck 11.9036 -19.8294 -19.4225
upperneck -25.9113 -24.6241 37.683
head -1.23286 -14.2081 15.1544
rclavicle -9.70069e-014 3.81667e-014
rhumerus -38.6081 -9.34214 -85.5343
rradius 49.9126
rwrist -20.6033
rhand -27.5669 37.0903
rfingers 7.12502
rthumb -0.967597 7.11279
lclavicle -9.70069e-014 3.81667e-014
lhumerus -10.7003 -4.62259 95.7542
lradius 122.395
lwrist 45.5711
lhand -16.8602 48.1152
lfingers 7.12502
lthumb 9.37025 77.887
rfemur 11.4606 -9.99658 34.6828
rtibia 56.8572
rfoot -0.419735 -7.29573
rtoes -31.6636
lfemur -56.8942 -1.21801 -23.0682
ltibia 62.4263
lfoot -12.008 -8.2591
ltoes -17.0624
159
root 2.92127 14.2426 -9.45573 -180.774 61.2775 -197.809
lowerback 19.3415 6.67066 -0.21728
upperback 7.79617 9.32663 -3.7767
thorax -1.64641 5.03397 -5.75181
lowerneck 11.4576 -19.4595 -19.4023
upperneck -25.9297 -23.9168 38.0926
head -1.27059 -13.8516 15.4132
rclavicle 4.45278e-014 -2.06736e-014
rhumerus -39.0923 -8.97227 -85.3339
rradius 50.487
rwrist -20.9889
rhand -27.3876 37.0193
rfingers 7.12502
rthumb -0.794436 7.04107
lclavicle 4.45278e-014 -2.06736e-014
lhumerus -8.14249 -4.17882 95.4145
lradius 123.31
lwrist 42.2816
lhand -16.6522 47.7621
lfingers 7.12502
lthumb 9.57092 77.5247
rfemur 8.42446 -11.4811 32.8801
rtibia 64.4904
rfoot -1.05823 -7.94926
rtoes -26.9997
lfemur -54.9198 -0.669413 -23.6853
ltibia 63.5553
lfoot -15.0945 -5.35281
ltoes -24.6337
160
root 3.41047 14.1998 -9.58903 -182.322 61.8347 -198.967
lowerback 19.615 6.44896 -1.12454
upperback 7.9692 8.89909 -3.80869
thorax -1.76523 4.81394 -5.23798
lowerneck 11.1113 -18.9732 -19.5144
upperneck -26.0169 -23.0627 38.5283
head -1.3638 -13.4203 15.768
rclavicle -5.80451e-014 -4.6118e-014
rhumerus -39.6438 -8.66433 -85.0026
rradius 51.1756
rwrist -21.0675
rhand -27.1581 36.6692
rfingers 7.12502
rthumb -0.572742 6.69018
lclavicle -5.80451e-014 -4.6118e-014
lhumerus -5.62252 -3.61416 95.1078
lradius 124.467
lwrist 38.8331
lhand -16.0298 47.0939
lfingers 7.12502
lthumb 10.1714 76.828
rfemur 5.50569 -12.9617 31.0054
rtibia 72.09
rfoot -2.59013 -9.93966
rtoes -22.3632
lfemur -52.4526 -0.196108 -23.6767
ltibia 64.6098
lfoot -17.8278 -6.4309
ltoes -24.3383
